<?xml version="1.0" encoding="UTF-8"?> <svg xmlns="http://www.w3.org/2000/svg" width="188.328" height="169.495" viewBox="0 0 188.328 169.495"><defs><style>.a{fill:#008b95;}.b{fill:#fff;}</style></defs><g transform="translate(-132 0)"><path class="a" d="M66.9,35.312V167.14l94.164,37.667,94.164-37.667V35.312Z" transform="translate(65.101 -35.313)"></path><path class="b" d="M183.723,50.386c0,1.744.015,3.439,0,5.134-.012.965-.4,1.344-1.351,1.389-.125,0-.251,0-.379,0l-8.476,0v-6.97c-1.533,0-3-.08-4.451.022a2.959,2.959,0,0,0-2.691,2.491,9.8,9.8,0,0,0-.152,1.767c-.022.881-.007,1.763-.007,2.591-.984,0-1.934.026-2.868.019-.314,0-.624-.008-.932-.015-.154-.008-8.218-.011-8.374-.023a1.741,1.741,0,0,1-1.676-1.559,9.577,9.577,0,0,1-.132-1.449c-.019-.436,0-.87,0-1.3h-2.638a28.984,28.984,0,0,0,.019,3.081,4.187,4.187,0,0,0,4.068,4.174c.236.03,8.379.05,8.618.068.367.023.737.034,1.108.039.345,0,.692,0,1.037.007.507.008,1.014.008,1.526.008.957,0,1.926,0,2.925,0V54.469c0-1.518.152-1.661,1.687-1.609a1.967,1.967,0,0,1,.3.061V59.85c.8,0,1.585.015,2.357.018.265,0,.527,0,.787,0,.356,0,8.616-.012,8.972-.028a3.1,3.1,0,0,0,3.15-2.615,15.423,15.423,0,0,0,.249-2.895c.037-1.309.011-2.619.011-3.942Z" transform="translate(96.375 -29.789)"></path><path class="b" d="M194.328,53.038a2.96,2.96,0,0,0-1.748-2.618,6.581,6.581,0,0,0-6.634.881c.481.75.947,1.476,1.416,2.214a4.037,4.037,0,0,1,2.805-.776,1.365,1.365,0,0,1,1.453,1.234c.079.962.018,1.934.018,2.957H177.963v2.895h16.389c0-2.294.052-4.542-.023-6.786" transform="translate(107.125 -29.797)"></path><path class="b" d="M102.049,55.132c-.008.983-.334,1.308-1.294,1.312-1.314.008-12.911.015-14.225,0-.2,0-.39,0-.583-.008-1.921-.026-2.689-.809-2.709-2.72-.008-.568,0-1.132,0-1.7H80.6a28.718,28.718,0,0,0,.018,3.066c.273,2.55,1.548,3.95,4.052,4.17.444.039.882.069,1.325.1q.426.023.852.034c1.238.041,12.764.033,14,0l.718-.03a2.943,2.943,0,0,0,3.046-2.9c.16-1.468.088-2.962.114-4.447,0-.241,0-.484,0-.711h-2.671c0,1.305.007,2.578,0,3.846" transform="translate(70.271 -29.268)"></path><rect class="b" width="2.585" height="14.989" transform="translate(236.83 15.101)"></rect><rect class="b" width="2.153" height="1.934" transform="translate(198.781 18.711)"></rect><path class="b" d="M90.507,92.9V74.333H93.72c5.305,0,8.007,3.417,8.007,9.128,0,7.042-3.622,9.436-9.18,9.436Zm21.013-9.384c0-9.128-5.866-16.677-18.054-16.677h-12.9v33.61H94.284c11.628,0,17.237-8.007,17.237-16.933" transform="translate(70.271 -23.385)"></path><path class="b" d="M121.769,101.057c10.3,0,15.2-6.221,15.2-14.587V66.835h-9.995v20.35c0,2.8-1.582,5.763-5.154,5.763-3.621,0-5.253-3.061-5.253-6.069V66.835H106.519V86.777c0,8.263,4.542,14.28,15.25,14.28" transform="translate(80.092 -23.385)"></path><path class="b" d="M148.24,92.963h-5.355v-6.63h5.1c2.5,0,4.079,1.275,4.079,3.261,0,1.378-.666,3.369-3.825,3.369m-5.409-18.871h4.132c2.09,0,3.263,1.221,3.263,2.906,0,2.3-2.09,2.91-3.365,2.91h-4.03ZM161.6,90.514a8.664,8.664,0,0,0-5.509-8.157v-.205a8.463,8.463,0,0,0,3.471-6.784c0-4.742-3.724-8.568-9.793-8.568H133.141v33.66h17.751c6.528,0,10.709-4.742,10.709-9.945" transform="translate(90.165 -23.399)"></path><path class="b" d="M172.086,83.788h.2l2.857,6.682h-6.017ZM166.269,96.9h11.678l1.635,3.773h9.789L172.952,66.244h-1.173L155,100.669h9.588Z" transform="translate(98.435 -23.609)"></path><rect class="b" width="9.998" height="33.611" transform="translate(291.499 43.451)"></rect><path class="b" d="M89.851,106.458c0-1.563,1.609-2.116,3.633-2.116a18.151,18.151,0,0,1,8.276,2.482V99.6a26.433,26.433,0,0,0-9.748-1.975c-7.5,0-11.175,4.185-11.175,8.829,0,9.2,13.842,9.013,13.842,13.707,0,1.7-1.748,2.387-4,2.387a19.5,19.5,0,0,1-10.12-3.447v7.773c3.176,1.793,7.773,2.482,11.27,2.482,8.642,0,11.864-4.919,11.864-9.2,0-10.3-13.843-10.21-13.843-13.707" transform="translate(70.27 -11.733)"></path><path class="b" d="M116.333,122.1c-4.688,0-7.773-3.683-7.773-8.6,0-4.688,3.085-8.415,7.773-8.415,4.828,0,7.682,3.773,7.682,8.415,0,4.828-2.944,8.6-7.682,8.6m-.045-24.374c-9.842,0-16.736,6.988-16.736,15.771,0,8.924,6.481,15.727,16.645,15.727,9.839,0,16.692-6.8,16.692-15.727,0-8.783-6.622-15.771-16.6-15.771" transform="translate(77.455 -11.696)"></path><path class="b" d="M144.824,116.545c0,2.528-1.427,5.2-4.642,5.2-3.265,0-4.737-2.758-4.737-5.472V98.195h-9.06v17.982c0,7.447,4.1,12.874,13.748,12.874,9.29,0,13.707-5.609,13.707-13.15V98.195h-9.015Z" transform="translate(87.608 -11.519)"></path><path class="b" d="M148.967,104.969h8.23v23.545h9.014V104.969h8.28V98.161H148.967Z" transform="translate(96.153 -11.532)"></path><path class="b" d="M188.267,109.416h-9.1V98.2h-9.014v30.3h9.014v-12.23h9.1V128.5h9.059V98.2h-9.059Z" transform="translate(104.168 -11.519)"></path><rect class="b" width="2.043" height="2.043" transform="translate(258.967 31.652)"></rect><rect class="b" width="2.047" height="2.043" transform="translate(261.514 31.652)"></rect><rect class="b" width="2.043" height="2.043" transform="translate(279.973 31.652)"></rect><path class="b" d="M106.229,58.345c-.744,0-1.422.03-2.1-.007a1.616,1.616,0,0,1-1.6-1.287A2.186,2.186,0,0,1,103.2,54.7a1.952,1.952,0,0,1,2.146-.221A1.7,1.7,0,0,1,106.218,56c.05.753.011,1.513.011,2.342m50.708-12.059h-2.63v.8c0,3.311,0,6.619-.019,9.93a1.114,1.114,0,0,1-.87,1.26,1.741,1.741,0,0,1-.292.05c-.079.011-9.649.011-9.72.007-.5-.03-.852-.36-1-1.021a18.8,18.8,0,0,1-.288-2.01,4.046,4.046,0,0,0-2.138-3.58,6.292,6.292,0,0,0-6.1.958c.182.367.367.744.555,1.119s.375.742.557,1.1c.412-.167.761-.325,1.121-.438a8.507,8.507,0,0,1,1.112-.258,1.664,1.664,0,0,1,2.145,1.548c.149.855.3,1.711.444,2.584h-4.9c-.363,0-.726.007-1.086.007s-8.627-.007-8.983-.037c-1-.083-1.283-.416-1.314-1.422-.022-.637-.007-1.276-.011-1.912v-1.8h-2.671v3.334c0,1.18-.171,1.631-.935,1.771-.125.026-9.756.037-9.915.048s-.323.008-.507.008c-.167,0-.329-.015-.507-.026-.057-1.068-.065-2.1-.178-3.13a3.772,3.772,0,0,0-2.38-3.526,4.885,4.885,0,0,0-5.037.692c-1.593,1.344-1.819,3.194-1.529,5.117a3.979,3.979,0,0,0,3.95,3.673c.753.058,1.518.012,2.278.012a1.829,1.829,0,0,1-1.711,2.054c-.583.073-1.181.076-1.775.091-.646.012-1.294,0-1.945,0v2.838c1.487,0,2.952.11,4.394-.026a3.967,3.967,0,0,0,3.591-3.038,16.073,16.073,0,0,0,.334-1.779h.291c.2,0,.408.008.613,0,.174,0,9.839,0,10.013-.019a3.036,3.036,0,0,0,2.459-1.223,2.62,2.62,0,0,0,2.4,1.22c.367,0,8.642,0,9.009.007q4.877.033,9.748,0c.163,0,9.809,0,9.971-.007.061,0,.125,0,.19,0a3.117,3.117,0,0,0,3.042-2.589,8.631,8.631,0,0,0,.245-2.069c.026-3.267.015-6.536.015-9.806,0-.178-.03-.36-.041-.514" transform="translate(77.531 -31.16)"></path><rect class="b" width="2.043" height="2.043" transform="translate(214.432 31.652)"></rect><rect class="b" width="2.043" height="2.043" transform="translate(157.186 31.652)"></rect></g></svg> 